<?xml version="1.0" encoding="utf-8"?>
<!DOCTYPE svg PUBLIC "-//W3C//DTD SVG 1.0//EN" "http://www.w3.org/TR/2001/REC-SVG-20010904/DTD/svg10.dtd">
<svg version="1.0" xmlns="http://www.w3.org/2000/svg" width="1012px" height="1147px" viewBox="0 0 1012 1147" preserveAspectRatio="xMidYMid meet">
 <g fill="#fffefe">
  <path d="M0 573.5 l0 -573.5 506 0 506 0 0 573.5 0 573.5 -506 0 -506 0 0 -573.5z m584.5 527.1 c50 -4.6 98.6 -22.9 147.1 -55.2 38.1 -25.3 66.6 -50.4 104.3 -91.3 56.2 -61.2 100 -139.8 118.1 -211.4 8.9 -35.6 11.6 -55.2 12.4 -89.2 1.2 -48.7 -4.7 -88.7 -22.9 -155.9 -9.9 -36.5 -12.1 -51.3 -14.8 -100 -2.1 -39.1 -2.7 -46.1 -6.4 -73.9 -8.5 -66.1 -27.6 -130.4 -53.6 -180.8 -31 -60.2 -65.9 -97.1 -98.7 -104.4 -19.4 -4.3 -39.2 3.3 -58 22 -26.1 26.4 -48.8 74.8 -73.3 157.7 -3.1 10.1 -6.6 22.5 -8.1 27.3 l-2.6 8.9 -8.6 -0.6 c-39.1 -3.1 -51.8 -3.1 -98.4 -0.1 l-10.8 0.7 -1.7 -6.2 c-14.7 -52 -22.5 -76.3 -32.9 -103.2 -11.9 -30.5 -29.2 -61.6 -44 -78.7 -12 -14.1 -28 -24.4 -43.7 -27.8 -24.4 -5.5 -52.6 9.9 -79.3 43 -31.2 38.8 -55.8 89.6 -74.2 153.7 -15.1 52.6 -22 98.5 -25.8 172.4 -2 38 -3.8 50.1 -13.4 87 -13.2 51.3 -16.8 67.7 -20.2 94.9 -4.6 35.4 -5.1 60.7 -1.6 93.8 8.6 81.1 43.1 163.1 99 235.6 41.9 54.3 97.9 105.4 149.7 136.4 40.3 24.1 83.6 40 121.8 44.3 21.1 2.4 25.4 2.5 40.6 1.2z"/>
  <path d="M541.3 1076.2 c-70.9 -9.7 -136.9 -47.6 -206.1 -118.7 -26.2 -26.9 -42.6 -46.8 -61 -74.1 -40.1 -59.5 -63.3 -114.6 -73.3 -174.1 -5 -29.2 -6.7 -63.7 -4.8 -93.1 2.4 -39.5 6.6 -62.2 23.7 -126.5 9 -33.7 10.4 -44 12.6 -86 3.4 -64.8 8.9 -104.2 21.2 -152.7 17.8 -69.7 50.8 -135.1 85.2 -169.2 15.5 -15.4 26.5 -20.2 42.5 -19.3 20.7 1.4 38.9 20 59.1 60.5 12.3 24.7 25 59.9 39.3 109 10.1 34.8 10.9 36.9 15.1 41.6 5.2 6 8.5 6.6 25 5 19.8 -2 73.1 -2.1 95.6 -0.3 18 1.5 18.2 1.5 22.9 -0.7 3.2 -1.5 5.5 -3.7 7.2 -6.7 2.6 -4.5 9.1 -23.9 18.1 -54.9 6.3 -21.6 18.3 -57.1 24.5 -71.9 16 -39.4 36.4 -69 53.2 -77.6 5.6 -2.8 8.1 -3.5 15.7 -3.9 16.4 -0.8 27.8 4.5 43.2 20.6 36.3 37.7 68.1 101.6 85.3 171.5 11.2 45.3 16.1 82.6 19.5 145.8 2.4 46.5 3.5 53.2 15.8 100.5 9.6 36.7 13.4 54.1 16.8 78.1 16.6 115.7 -9.3 216.8 -81 316.1 -34.5 47.9 -79.4 93.1 -123 124.1 -32.2 22.8 -68.6 40.8 -100 49.4 -24.5 6.7 -33.8 8 -60.6 8.4 -13.3 0.1 -27.5 -0.2 -31.6 -0.7z m-45.3 -88.6 c23.5 -2.8 45.1 -12.5 63.9 -28.7 5.9 -5.1 7.6 -6 11.2 -6 3.3 0 4.8 0.7 7.2 3.2 4.7 5 17.2 14.1 24.9 18.3 36.7 20.1 75.8 17.3 112.4 -8 10 -7 26 -23.7 32.4 -33.8 9 -14.3 15.1 -32.2 13.1 -37.6 l-0.9 -2.6 -2 2.3 c-1.1 1.4 -3.8 5.9 -6.1 10 -9.5 17.2 -26.5 34.4 -44.3 45 -17.8 10.6 -33.8 14.9 -56 14.9 -38.8 -0.1 -65.6 -17.2 -73.4 -46.9 -2.6 -10.3 -2.3 -11.8 3 -13.2 16.7 -4.3 27 -9.6 36.6 -18.6 8.5 -8 13.8 -17.7 13.9 -25.1 0.2 -9.7 -8.5 -20.2 -20.5 -24.7 -17.3 -6.4 -53.6 -7.5 -75.5 -2.2 -8.6 2.1 -15.7 6.1 -20.7 11.6 -7.9 8.9 -8.7 15.6 -3.2 27.1 7 14.3 24.1 25.8 47.6 31.8 4.3 1.2 4.4 1.3 4.4 5.7 0 5.3 -4.1 17.9 -8 24.6 -6.7 11.5 -23.2 22.8 -40 27.3 -9.8 2.6 -37.6 3.3 -49.5 0.9 -31.8 -5.9 -58.8 -25.9 -79.1 -58.6 -3.9 -6.3 -7.5 -11.5 -8 -11.5 -1.8 0 -2.3 5.6 -0.9 11.3 2.6 11.8 10.3 27 19.7 38.5 19.5 23.9 46.8 40 76.2 44.6 11.6 1.8 10.5 1.8 21.6 0.4z m-167.9 -199.9 c3.3 -1.5 6.9 -3.6 7.8 -4.6 1.7 -1.9 1.6 -2 -2 -3.6 -2.1 -0.8 -8.4 -2 -14.1 -2.6 -21.5 -2.3 -37.4 -6.7 -53.6 -15.2 -4.6 -2.3 -8.9 -4.5 -9.4 -4.7 -0.5 -0.2 0.2 1.6 1.5 3.9 8.2 14.7 27.8 28.1 44.6 30.6 7.5 1.1 17.9 -0.4 25.2 -3.7z m516.3 1.1 c13.7 -4.5 29.2 -16.9 35.6 -28.6 l2.4 -4.3 -9 4.7 c-16.9 9 -33.4 13.9 -56.4 16.7 -14.2 1.8 -17.1 3 -14.3 5.9 2.5 2.7 13.2 7.3 19.6 8.2 7.4 1.2 12.3 0.5 22 -2.6z m-360.8 -49.8 c-2.1 -31.2 -20.8 -67.8 -46.9 -91.8 -19.6 -18.1 -40.2 -29 -82 -43.3 -29 -9.9 -40.7 -15.5 -54.2 -25.8 -12.3 -9.4 -23.9 -24.1 -29.4 -37.3 -3.2 -7.5 -4.2 -8.7 -6 -7.3 -2.4 2 -3.9 12.4 -3.3 24.1 1.5 25.7 11.8 48.3 30.4 65.9 15.6 14.8 33.5 24.2 68.9 36.4 48.2 16.6 69.2 28.5 92.3 52.3 8.9 9.3 20.1 24.6 26.6 36.4 1.8 3.3 2.1 3.4 3.1 1.6 0.7 -1.3 0.9 -5.5 0.5 -11.1z m180.5 -0.8 c9.3 -16 25.5 -33.8 41.2 -45 18.2 -13.1 35.7 -21.3 72.8 -34.4 23.2 -8.1 43.2 -17.2 53.7 -24.2 28.1 -19.1 44.5 -48.9 44.5 -81.2 0 -12 -1.6 -19.9 -4.2 -20.9 -0.6 -0.2 -3.3 4.1 -5.9 9.5 -5.4 11.1 -15.5 24.4 -24 31.5 -14.4 12.3 -28.7 19.7 -55.7 28.9 -33.5 11.3 -49.2 18.3 -65.9 29.5 -25.8 17.3 -47.3 44.5 -58.2 73.3 -5.8 15.3 -9.8 38.2 -7.7 43.7 l1.2 3.1 1.9 -3.1 c1.1 -1.8 3.9 -6.5 6.3 -10.8z m-318.6 4.5 c10.3 -1.6 17.7 -4.4 17.7 -7 0 -3.4 -10.8 -8.4 -28.5 -13.3 -42.9 -11.9 -61.9 -21.5 -81.7 -41.5 -5 -5 -11.3 -12.4 -14.1 -16.7 -2.7 -4.2 -5.3 -7.5 -5.6 -7.2 -1.3 1.3 -0.2 10.2 2.3 18.9 10.8 37.1 42.2 62.2 83.9 67 11.6 1.4 15.3 1.3 25.9 -0.3z m469.5 0.4 c20.7 -2.1 35.9 -7.3 51.1 -17.4 19.6 -13.1 34.2 -35.4 38.5 -58.9 1.9 -10.1 0.2 -11.1 -5 -2.5 -5.3 8.6 -18.9 22.8 -29.3 30.6 -15.6 11.4 -35.9 20.2 -60.5 26.2 -18.1 4.3 -35 11.5 -35 14.8 0 2.7 9.3 6 20.7 7.2 4.6 0.5 8.4 0.9 8.4 1.1 0.1 0 5.1 -0.4 11.1 -0.9z m-331.2 -128.7 c-11.3 -32.7 -35.5 -63.6 -65.5 -83.5 -22.7 -15.2 -39.6 -20.9 -51.7 -17.6 -8.2 2.3 -7.5 8.7 2.1 19.1 7.5 8.1 13.7 12.3 36.8 24.9 21.4 11.6 30.5 17.4 44.6 28.8 9.6 7.8 27.8 25.9 32.8 32.7 1.4 1.7 2.5 3 2.7 2.7 0.2 -0.2 -0.6 -3.4 -1.9 -7.1z m179.7 -7.3 c18 -20 36.3 -33.4 71.3 -52.2 24.6 -13.2 35.7 -21.7 40.5 -30.9 2.5 -5 2.1 -7.4 -1.7 -9.8 -3.1 -1.9 -4.5 -2.1 -11.7 -1.5 -30.6 2.3 -73.4 35.6 -97.2 75.6 -5.2 8.7 -12.3 24.9 -13.6 30.9 l-0.6 3.2 3.4 -4.2 c1.9 -2.3 6.2 -7.3 9.7 -11.1z m-30.5 -72.7 c13.7 -20.3 25.1 -33.2 46.4 -52.2 7 -6.2 14.8 -13.5 17.3 -16.1 7.1 -7.7 14.3 -19.3 16.3 -26.4 1.6 -5.8 1.6 -6.9 0.2 -10.1 -2.2 -5.4 -7.3 -8.2 -13.2 -7.5 -29.3 4.2 -68.2 50.9 -83.6 100.6 -4.6 15 -8.1 40.2 -6.6 48.7 l0.7 4.4 7.2 -14.7 c3.9 -8 10.8 -20.1 15.3 -26.8z m-104.2 27.2 c-3 -60.4 -44.5 -126.7 -86.7 -138.4 -5.8 -1.6 -6.7 -1.7 -10.2 -0.2 -7.8 3.3 -9.5 10.6 -5.1 21.8 3.5 9 10.5 17.8 23.4 29.7 32.5 29.8 41.1 39.4 56.1 61.8 4.2 6.3 10.8 17.5 14.4 24.9 3.7 7.3 7.1 13.3 7.7 13.3 0.5 0 0.7 -5.2 0.3 -12.9z m-227.4 -200.7 c42.3 -36.9 77.1 -58.7 120.9 -75.7 7.1 -2.7 13.4 -5.7 14.1 -6.6 3.7 -4.4 -11.8 -66.7 -25.1 -100.5 -12.8 -32.4 -27.9 -55.9 -36.3 -55.9 -5.5 0 -23.1 21.7 -37.7 46.8 -20.5 34.8 -36.6 78.2 -44.9 120.8 -5.8 29.9 -10.4 75.1 -8.5 82.8 0.6 2.6 0.9 2.7 2.5 1.4 0.9 -0.8 7.7 -6.7 15 -13.1z m554 9.7 c0.7 -3.8 -0.7 -23.7 -3.2 -44.9 -6 -50.4 -20.1 -98.2 -41.2 -140.4 -16.9 -33.5 -38.7 -63 -46.6 -63 -15.6 0 -44.1 63.7 -59.7 133.6 -2.1 9.3 -3.8 18.1 -3.8 19.6 0 3.4 0.6 3.7 21.1 11.8 41.7 16.4 77.7 39.5 118.6 75.8 6.9 6.1 13 11.2 13.4 11.2 0.4 0 1.1 -1.6 1.4 -3.6z"/>
 </g>
 <g fill="#010101">
  <path d="M554.5 1104 c-26.8 -2.5 -43.5 -6 -68 -14.1 -73.5 -24.5 -155.3 -87.7 -217.2 -168 -49.1 -63.7 -81.9 -135.4 -94.8 -206.6 -7.8 -43.1 -8.6 -84.4 -2.6 -129.7 3.6 -26.9 7.2 -43.4 20.2 -94.3 9.6 -36.9 11.4 -49 13.4 -87 4.4 -86.3 14.5 -143.2 36.5 -206.1 27.2 -78.1 70.3 -140.9 108.8 -158.3 23.6 -10.8 48.4 -7.2 70.5 10.1 14.4 11.3 30.3 33.2 44 61.2 15.7 31.8 26.7 63.5 46.5 133.8 l1.7 6.1 6 -0.6 c20.1 -2.1 52 -2.8 73.7 -1.8 12.6 0.6 25 1.5 27.4 1.8 l4.3 0.6 2.6 -8.9 c1.5 -4.7 5.1 -17.1 8.1 -27.2 24.5 -82.9 47.1 -131.3 73.3 -157.7 15.2 -15.2 29.1 -22 47 -23.3 32.8 -2.2 64.6 21.8 97.9 74 35.3 55.2 61 131.7 71.6 212.4 3.7 27.8 4.3 34.8 6.4 73.9 2.6 48.7 4.8 63.6 14.8 100 12.8 47.3 19 79.5 22.2 115.7 1.6 18.2 0.6 67.9 -1.6 84.5 -7.9 57.2 -27.8 114.4 -58.4 167.1 -37 63.9 -94.5 128.6 -151.5 170.8 -42 31.1 -78.3 49.9 -120.2 62 -26 7.6 -60.9 11.6 -82.8 9.5z m51.1 -32.9 c34.3 -6.4 66.7 -19.1 100 -39 51.8 -31 106.4 -82.8 147.8 -140.3 63.6 -88 91.3 -178.4 84.8 -275.3 -2.4 -34.3 -7.7 -63.5 -20.6 -112.6 -12.3 -47.2 -13.4 -54 -15.8 -100.5 -3.4 -63.1 -8.3 -100.5 -19.5 -145.8 -17.2 -69.9 -49 -133.8 -85.3 -171.5 -30 -31.2 -54.4 -27.3 -81.2 13.1 -17.1 25.7 -32.9 64.3 -49.1 119.8 -9.1 30.9 -15.5 50.4 -18 54.8 -2.5 4.4 -6.3 7.1 -12.2 8.7 -1.7 0.5 -10 0.2 -19.5 -0.7 -23.1 -2.3 -72 -2.3 -95.1 0 -20.3 2.1 -23.9 1.6 -29.6 -4.4 -4.7 -5 -5.4 -6.9 -15.7 -42.3 -14.3 -49.1 -27 -84.3 -39.3 -109 -22.6 -45.2 -43.9 -64.4 -66.3 -59.8 -22.5 4.6 -53.4 40.9 -79.3 92.9 -14.4 28.9 -26.1 60.6 -34.9 94.9 -12.3 48.6 -17.8 87.9 -21.2 152.7 -2.2 42.1 -3.7 52.3 -12.6 86 -17 64.3 -21.3 87.1 -23.7 126.3 -2 32.2 1.1 71.6 8 104 11.4 53 33.8 103.2 70.1 157.1 18.4 27.3 34.8 47.2 61 74.1 69.2 71.1 135 109 206.1 118.7 12.6 1.7 47.9 0.6 61.1 -1.9z"/>
  <path d="M471.2 990.4 c-26.1 -4.1 -51.1 -17.5 -69.7 -37.3 -15.7 -16.8 -25.7 -35.7 -27 -51.4 -0.7 -7.9 0.1 -11.5 2.8 -13 3.4 -1.8 5.6 0.2 13.2 12.5 20.2 32.7 47.2 52.6 79.1 58.6 11.4 2.2 33.3 1.7 43.2 -0.9 16.3 -4.4 32.2 -15 39.5 -26.6 3.2 -5.1 9.3 -22 8.3 -23 -0.3 -0.3 -4.7 -1.8 -9.9 -3.3 -26.9 -7.8 -44.6 -24.9 -45.6 -43.9 -0.2 -3.9 0.1 -8.7 0.8 -10.9 1.8 -5.5 9.8 -13.8 16.1 -16.8 20.3 -9.6 73.5 -9.9 94.3 -0.7 17.3 7.7 23.4 24.2 15.2 41.2 -6.6 13.8 -22.1 25.2 -42.1 31 -5.1 1.5 -9.3 2.7 -9.4 3 -0.6 0.7 3.3 12.8 6.1 18.4 14.7 29.7 61.9 42.6 100.9 27.6 24 -9.3 48.8 -30.7 60.9 -52.7 6.2 -11.2 8.5 -13.9 11.7 -13.5 4.6 0.5 6.1 5.1 4.6 13.8 -3.1 17.3 -12.9 35.3 -28.3 51.3 -25.7 26.8 -59.7 40.3 -92.7 36.9 -25.4 -2.6 -49.5 -13.6 -67.5 -30.7 -2.4 -2.3 -4.7 -4.1 -5.2 -4.1 -0.5 0 -4.1 2.6 -7.9 6 -18.8 16.1 -40.4 25.8 -63.9 28.7 -11.7 1.4 -16.4 1.4 -27.9 -0.4z"/>
  <path d="M479 754.6 c-1.2 -1.4 -4.1 -5.8 -6.5 -9.9 -6.9 -11.7 -15.9 -23.3 -26.1 -33.2 -22.3 -21.6 -42.4 -32.6 -88.4 -48.4 -35.4 -12.1 -53.3 -21.6 -68.9 -36.4 -13.5 -12.9 -22.7 -28.3 -27.7 -46.9 -2 -7.6 -2.4 -11.5 -2.4 -26.4 0 -14.9 0.3 -17.9 1.9 -21.3 3.9 -7.7 8.9 -5.8 13.4 5.3 5.4 13.2 17.1 28 29.5 37.5 13.5 10.3 25.2 15.9 54.2 25.8 41.9 14.3 62.4 25.2 82 43.3 28.4 26.1 47.2 65.8 47.3 99.2 0 12.1 -3.3 16.8 -8.1 11.3z"/>
  <path d="M653 754.7 c-4.5 -5.1 -1.3 -32.8 6.2 -52.6 10.9 -28.8 32.4 -56 58.2 -73.3 16.7 -11.2 32.4 -18.2 65.9 -29.5 27 -9.2 41.2 -16.6 55.7 -28.9 8.4 -7.1 18.7 -20.5 23.8 -31.3 5.7 -11.6 7.2 -13.1 11 -11 4.5 2.6 5.8 8.2 5.8 25.3 0 13.2 -0.4 16.8 -2.7 25.8 -5.1 19 -13.8 33.8 -28 47.2 -14.9 13.9 -32.6 23.3 -67.5 35.5 -37.1 13.1 -54.6 21.3 -72.8 34.4 -15.7 11.3 -32 29.1 -41.2 45 -9.8 16.9 -10.4 17.5 -14.2 13.3z"/>
 </g>
 <g fill="#cf2832">
  <path d="M299.7 794.7 c-12.9 -2.1 -28.8 -11.2 -37.7 -21.3 -5.1 -5.8 -11.1 -16.6 -11.1 -19.9 0 -3.1 3 -3.5 7.2 -0.9 20.9 12.4 39.4 18.4 64.8 21.2 5.7 0.6 11.9 1.8 13.9 2.5 11.4 4.8 -0.4 15.9 -19.8 18.4 -9.2 1.3 -9.6 1.3 -17.3 0z"/>
  <path d="M819.2 794.7 c-11.5 -2 -22.2 -8.5 -22.2 -13.6 0 -3.8 3.6 -5.3 16.4 -6.9 15.8 -1.9 25.9 -4.1 37.3 -8.1 9.4 -3.4 21.7 -9.2 26.6 -12.5 1.5 -1.2 4.2 -2 6 -2 2.7 0 3.3 0.4 3.3 2.4 0 4.1 -5.3 13.2 -11.3 19.8 -14.8 15.8 -37.2 24.2 -56.1 20.9z"/>
  <path d="M316.4 746.2 c-35.5 -4.1 -63.6 -22.9 -78.4 -52.3 -7.3 -14.2 -11 -36.9 -6.7 -41.1 2.5 -2.6 4.3 -1.3 10.8 8.2 6.7 9.9 21 24.4 31.1 31.4 14.3 10.1 32.2 17.9 54.4 23.8 29.8 7.9 40.5 13.1 40.5 19.5 0 5.4 -6.4 8.5 -21.4 10.5 -9.4 1.2 -18.9 1.2 -30.1 -0.1z"/>
  <path d="M792.3 746.2 c-14.2 -1.5 -21.7 -5 -21.7 -10.1 0 -2.6 3.9 -7 8.4 -9.3 4 -2 18.2 -6.6 27.8 -9 41.2 -10 70.4 -28.4 89.2 -56.1 9.6 -14.1 12.1 -13.9 12 1.1 -0.2 23.4 -16.6 51.2 -38.8 66.1 -15.2 10.1 -30.5 15.3 -51.1 17.4 -12 1.2 -13.8 1.2 -25.8 -0.1z"/>
  <path d="M480.7 622.8 c-17.1 -19.6 -34 -35.1 -51.7 -46.9 -4.3 -3 -16.3 -9.8 -26.7 -15.4 -23.2 -12.5 -29.3 -16.8 -36.9 -24.9 -7.4 -8 -10 -15.1 -7.7 -20.7 1.8 -4.2 6.1 -5.8 16.3 -5.8 30.6 0 77.3 34.9 100.6 75.4 11.3 19.5 18.7 44 13.8 45.5 -0.6 0.2 -4.2 -3.1 -7.8 -7.3z"/>
  <path d="M647.4 629 c-3.7 -3.7 3.4 -25.6 14.2 -43.9 19.7 -33.3 50.8 -60.5 82.3 -72.4 9.5 -3.6 26.7 -4.7 31.7 -2.1 5.8 3.1 6.9 7.5 3.5 15.1 -4.8 10.5 -15 18.3 -44.7 34.4 -21.5 11.7 -32.6 18.7 -44.2 27.9 -10.8 8.7 -25.1 23.2 -32.8 33.1 -6.6 8.5 -8.2 9.8 -10.1 7.9z"/>
  <path d="M525.2 579.1 c-0.6 -1.1 -4.1 -8 -7.9 -15.4 -8.1 -15.8 -17.7 -30.6 -29.2 -44.9 -8 -9.9 -17.4 -19.4 -40.9 -41 -17.9 -16.6 -25 -27.8 -26.1 -41.7 -1.3 -14.4 8.5 -20.7 25 -15.8 35.6 10.4 72.2 60.9 83.1 114.8 3.9 19.2 4.7 39.8 1.8 44.6 -1.2 1.9 -4.6 1.6 -5.7 -0.5z"/>
  <path d="M608.1 579.2 c-2.2 -2.7 -1.9 -26.6 0.5 -40 9.3 -50.3 43.6 -101.8 78.3 -117.1 8.6 -3.9 19.6 -4.5 24.4 -1.5 6.5 4.1 8 11.8 4.4 23.3 -3.8 12.3 -12.2 22.9 -33.2 41.5 -29.2 26 -46.2 47.8 -61.7 79 -4.6 9.3 -8.6 16 -9.6 16.2 -0.9 0.2 -2.3 -0.5 -3.2 -1.5z"/>
  <path d="M281.4 377.2 c-1.9 -3.6 -0.5 -34 2.7 -57.1 7.3 -53.3 19.4 -94.3 39.5 -134.6 15.1 -29.9 37 -60.9 46.7 -65.9 4 -2.1 9.4 -1.4 13.8 2.1 7.7 5.8 20.9 28.9 30.5 53.3 12.1 30.8 26 84.8 26 100.7 0 7 0 7 -16.9 13.5 -42 16.2 -77.7 38.8 -118.6 74.5 -19.9 17.5 -21.3 18.2 -23.8 13.5z"/>
  <path d="M849.7 376.7 c-2 -1.6 -8.4 -7.2 -14.2 -12.3 -38 -33.8 -75.6 -57.8 -116.5 -73.9 -22.3 -8.9 -21.1 -7.9 -21.1 -15 0 -11.2 10.8 -54 21.1 -84.1 11.9 -34.7 26.2 -61.9 36.6 -69.8 5.4 -4.1 12.1 -4.1 17.7 0.1 12.8 9.7 36.9 48.6 51.7 83.4 18.9 44.4 31.4 101.7 33.7 154.8 0.8 19 -1.2 22.9 -9 16.9z"/>
 </g>
</svg>
