<?xml version="1.0" encoding="UTF-8"?>
<svg version="1.1" xmlns="http://www.w3.org/2000/svg" width="980" height="980">
<path d="M0 0 C323.4 0 646.8 0 980 0 C980 323.4 980 646.8 980 980 C656.6 980 333.2 980 0 980 C0 656.6 0 333.2 0 0 Z " fill="#FEFEFE" transform="translate(0,0)"/>
<path d="M0 0 C3.8432272 0.00315297 7.68567607 -0.02038022 11.52880859 -0.0456543 C33.44231863 -0.1027164 55.41125195 1.15194072 76.80615234 6.19067383 C77.9655835 6.45259521 79.12501465 6.7145166 80.31958008 6.984375 C83.63269186 7.74154601 86.93875502 8.52352601 90.24365234 9.31567383 C91.54689453 9.62093994 91.54689453 9.62093994 92.87646484 9.93237305 C106.62500364 13.18197678 119.95533717 17.72595625 133.30712891 22.3112793 C135.7058128 23.13171375 138.10850559 23.93515745 140.51708984 24.72583008 C148.82090886 27.52860652 156.46080104 31.24962647 164.22021484 35.27612305 C166.19710593 36.29176038 168.1852095 37.27948556 170.18115234 38.25708008 C190.0250899 47.98063413 208.55437187 59.05504011 226.24365234 72.31567383 C227.25814453 73.07364258 228.27263672 73.83161133 229.31787109 74.61254883 C245.2147356 86.60229043 259.95297477 99.96395624 274.05615234 114.00317383 C274.76167236 114.704021 275.46719238 115.40486816 276.1940918 116.12695312 C284.42849925 124.38662248 291.82735443 133.326933 299.24365234 142.31567383 C300.24912109 143.51836914 300.24912109 143.51836914 301.27490234 144.74536133 C323.60616428 171.92726623 341.77776774 204.47286248 354.24365234 237.31567383 C354.68193359 238.43586914 355.12021484 239.55606445 355.57177734 240.71020508 C357.19287 244.88937216 358.73296464 249.09545405 360.24365234 253.31567383 C360.51580566 254.07235352 360.78795898 254.8290332 361.06835938 255.60864258 C370.82375258 283.20426099 376.13539583 312.27978318 379.24365234 341.31567383 C379.34460205 342.15412842 379.44555176 342.99258301 379.54956055 343.85644531 C385.71634472 400.27560705 375.86640433 463.34935228 353.24365234 515.31567383 C352.81028564 516.31775879 352.81028564 516.31775879 352.36816406 517.34008789 C347.9887924 527.44423237 343.37788664 537.39603748 338.33837891 547.18823242 C337.57127605 548.67898494 336.80791876 550.171668 336.04736328 551.66577148 C330.9680589 561.63177176 325.69065411 571.15290208 319.24365234 580.31567383 C318.34308265 581.63713994 317.44479261 582.96016144 316.54833984 584.28442383 C311.66682264 591.48154327 306.72217687 598.55631547 301.24365234 605.31567383 C300.27848015 606.52895429 299.31367156 607.74252404 298.34912109 608.95629883 C291.73283661 617.23715806 284.86040806 625.15837814 277.58984375 632.86791992 C275.57239946 635.03756894 273.63270538 637.27431307 271.68115234 639.50317383 C266.92067314 644.8129391 261.80728404 649.84574751 256.24365234 654.31567383 C255.58365234 654.31567383 254.92365234 654.31567383 254.24365234 654.31567383 C253.91365234 655.30567383 253.58365234 656.29567383 253.24365234 657.31567383 C249.80309659 660.57292128 245.97984579 663.40526977 242.24365234 666.31567383 C241.59170898 666.82517578 240.93976562 667.33467773 240.26806641 667.85961914 C231.12704459 674.98266056 221.88698678 681.88280593 212.24365234 688.31567383 C211.16083984 689.04141602 210.07802734 689.7671582 208.96240234 690.51489258 C200.39081119 696.1830029 191.5063707 701.21346576 182.47119141 706.10131836 C180.39135866 707.2351509 178.32808367 708.39414602 176.26708984 709.56176758 C164.4433017 716.16266109 151.9977521 721.15330491 139.40087891 726.08032227 C136.67336021 727.14753883 133.95419159 728.2332383 131.23583984 729.32348633 C96.56488399 742.94501563 57.34910398 750.332903 20.12646484 750.55395508 C19.46883022 750.55803061 18.8111956 750.56210613 18.13363266 750.56630516 C14.63661794 750.58701529 11.13964043 750.60136785 7.64257812 750.61083984 C4.82529329 750.61958918 2.00851964 750.64021728 -0.80859375 750.67236328 C-39.38392286 751.10225324 -79.19156057 745.91367085 -115.44921875 732.17919922 C-117.95106568 731.24279366 -120.46388927 730.34081294 -122.97900391 729.44067383 C-136.4794684 724.55604874 -149.41840504 718.95726515 -162.26660156 712.55541992 C-164.4902341 711.44818262 -166.7205413 710.35670043 -168.95556641 709.27270508 C-179.78698944 703.97628236 -189.90127319 697.65399868 -200.06884766 691.19067383 C-201.03113281 690.58352539 -201.99341797 689.97637695 -202.98486328 689.35083008 C-207.42857732 686.52776469 -211.7284463 683.72094157 -215.75634766 680.31567383 C-216.89753775 679.45531351 -218.04321701 678.60086707 -219.19384766 677.75317383 C-231.41603709 668.60386 -243.08934102 659.1247735 -253.81494141 648.22583008 C-256.37249148 645.70944781 -259.06422654 643.3744629 -261.79931641 641.05395508 C-266.36902679 636.99503068 -270.37971767 632.53261521 -274.31884766 627.87817383 C-275.3823207 626.62529029 -276.44613218 625.37269396 -277.51025391 624.12036133 C-278.31873779 623.1685498 -278.31873779 623.1685498 -279.14355469 622.19750977 C-280.67394752 620.4118198 -282.2237866 618.64590503 -283.78369141 616.88598633 C-291.48238757 608.15818775 -298.2238357 598.94065733 -304.75634766 589.31567383 C-305.21847656 588.63762695 -305.68060547 587.95958008 -306.15673828 587.26098633 C-307.48746532 585.30392282 -308.81158348 583.34264457 -310.13134766 581.37817383 C-310.51178223 580.81235596 -310.8922168 580.24653809 -311.28417969 579.66357422 C-317.03182159 571.0070495 -322.17161201 561.96197729 -327.31884766 552.94067383 C-327.86992187 551.9893457 -328.42099609 551.03801758 -328.98876953 550.05786133 C-332.81737159 543.33623494 -335.90895494 536.50207045 -338.75634766 529.31567383 C-339.5660488 527.35618161 -340.37822928 525.39771045 -341.19384766 523.44067383 C-341.61021484 522.43133789 -342.02658203 521.42200195 -342.45556641 520.38208008 C-343.29825933 518.39555171 -344.17408374 516.42262513 -345.08837891 514.46801758 C-356.9847723 488.54502261 -362.73490412 459.82444063 -367.50634766 431.87817383 C-367.70518555 430.71938721 -367.90402344 429.56060059 -368.10888672 428.36669922 C-370.96987749 410.85601254 -372.16758223 393.48280686 -372.13134766 375.75317383 C-372.13113617 374.78510803 -372.13092468 373.81704224 -372.13070679 372.81964111 C-372.06421773 342.00842392 -369.17408727 309.70206998 -359.67163086 280.27636719 C-358.79853432 277.45213626 -358.09146069 274.63638626 -357.44384766 271.75317383 C-352.42734913 251.08410338 -343.65228662 230.92479618 -334.08837891 212.01489258 C-333.09522178 210.00236596 -332.18469018 207.94866682 -331.31884766 205.87817383 C-323.96794098 189.1181066 -313.79717983 172.86336719 -302.75634766 158.31567383 C-301.70528238 156.86594049 -300.65740015 155.4138968 -299.61181641 153.96020508 C-288.10305732 138.01567744 -275.3356527 123.51941582 -261.75634766 109.31567383 C-261.27939453 108.80810547 -260.80244141 108.30053711 -260.31103516 107.77758789 C-259.16560593 106.58443245 -257.96563522 105.44405835 -256.75634766 104.31567383 C-256.09634766 104.31567383 -255.43634766 104.31567383 -254.75634766 104.31567383 C-254.75634766 103.65567383 -254.75634766 102.99567383 -254.75634766 102.31567383 C-253.35791016 100.90551758 -253.35791016 100.90551758 -251.38134766 99.25317383 C-248.21150599 96.56630278 -245.12223921 93.8216891 -242.06884766 91.00317383 C-236.83009925 86.28830026 -231.32298964 81.98088868 -225.68310547 77.76245117 C-223.58107101 76.18406088 -221.49351395 74.58740433 -219.40478516 72.99145508 C-208.30586771 64.58498795 -196.81873977 57.25394314 -184.75634766 50.31567383 C-183.41609011 49.53383066 -182.07621773 48.75132667 -180.73681641 47.96801758 C-174.98813555 44.6239391 -169.19343018 41.42000744 -163.20947266 38.51489258 C-161.51968212 37.68883256 -159.84304406 36.83549754 -158.17822266 35.96020508 C-149.4053121 31.38995978 -140.28745372 27.8059208 -131.08007812 24.22338867 C-129.07290647 23.43933066 -127.0721861 22.63879448 -125.07275391 21.83520508 C-118.07489904 19.05148068 -111.03460768 16.86155587 -103.77050781 14.88549805 C-101.62080788 14.27732839 -99.49271104 13.61557932 -97.36181641 12.94458008 C-86.48259425 9.57828383 -75.50722386 7.13142409 -64.31884766 5.06567383 C-63.32973892 4.87862885 -63.32973892 4.87862885 -62.32064819 4.68780518 C-41.64398421 0.81239803 -21.00535846 -0.03585439 0 0 Z " fill="#020202" transform="translate(485.75634765625,114.684326171875)"/>
<path d="M0 0 C7.01880553 4.05632268 12.59979246 9.31465488 17.75390625 15.51171875 C19.89675077 17.9483812 22.2826586 19.95848559 24.77734375 22.0234375 C27.9500392 24.68637133 30.75743561 27.54716629 33.28125 30.828125 C35.53782284 33.54928636 37.96842204 35.65931468 40.671875 37.91796875 C43.86799071 40.63178772 46.72530181 43.50539235 49.28125 46.828125 C51.49526259 49.49796371 53.85020438 51.57919099 56.52734375 53.765625 C58.94518083 55.85672734 61.15230849 58.12353802 63.40625 60.390625 C64.27459473 61.25896973 65.14293945 62.12731445 66.03759766 63.02197266 C73.82714844 70.81152344 81.61669922 78.60107422 89.40625 86.390625 C89.8084375 85.4934375 89.8084375 85.4934375 90.21875 84.578125 C91.40542406 82.39214646 92.50224113 80.97729906 94.40625 79.390625 C95.06625 79.390625 95.72625 79.390625 96.40625 79.390625 C96.67588468 78.79636719 96.94551935 78.20210938 97.22332478 77.58984375 C98.40390215 75.39498996 99.5822569 73.9608333 101.33305359 72.203125 C101.93150589 71.59758789 102.52995819 70.99205078 103.14654541 70.36816406 C103.80161072 69.71557617 104.45667603 69.06298828 105.1315918 68.390625 C105.82289688 67.69420898 106.51420197 66.99779297 107.22645569 66.28027344 C109.51430227 63.97852235 111.80950924 61.68428173 114.10546875 59.390625 C115.70031958 57.79188701 117.29494638 56.1929255 118.88935852 54.59375 C122.23427518 51.24136874 125.58304525 47.89289361 128.93432617 44.546875 C133.22222783 40.26476053 137.49867522 35.97140842 141.77205181 31.67480469 C145.06370528 28.36839526 148.36228558 25.06896458 151.66288185 21.77148438 C153.2420237 20.19183001 154.81881091 18.60981805 156.39316368 17.02539062 C158.59963451 14.8065407 160.81549405 12.5974979 163.03393555 10.390625 C163.6788797 9.73803711 164.32382385 9.08544922 164.98831177 8.41308594 C171.93851258 1.54247172 179.28476106 -2.56651295 189.28125 -2.921875 C199.09331076 -2.6691401 206.23012363 1.29647348 213.1328125 8.08984375 C218.70087138 14.19276543 220.95739718 20.05910334 220.78125 28.328125 C220.76819824 29.03614258 220.75514648 29.74416016 220.74169922 30.47363281 C220.34310407 42.55413182 213.9647005 50.18875045 205.39453125 58.29296875 C204.14371786 59.36546912 202.88306887 60.42659555 201.61328125 61.4765625 C197.10645308 65.38513914 192.99278844 69.72803575 188.80761719 73.9753418 C187.43484903 75.36174198 186.04762925 76.73378491 184.66015625 78.10546875 C182.37249703 80.33151938 182.37249703 80.33151938 180.53125 82.828125 C178.27467716 85.54928636 175.84407796 87.65931468 173.140625 89.91796875 C169.96819832 92.61167338 167.11857192 95.45723765 164.59375 98.765625 C162.13059879 101.72140645 159.41003478 104.06768634 156.4921875 106.5625 C153.30750725 109.35356809 150.36973438 112.36903309 147.40625 115.390625 C146.519375 116.256875 145.6325 117.123125 144.71875 118.015625 C142.43348878 120.36265004 140.44306903 122.82817526 138.40625 125.390625 C137.09130488 126.74209638 135.76360142 128.08175042 134.40625 129.390625 C135.97556613 133.24258277 138.45665318 135.50806447 141.40625 138.390625 C142.37353004 139.52891588 143.33147412 140.6751885 144.28125 141.828125 C146.86118898 144.89221706 149.67083803 147.38241863 152.75390625 149.92578125 C155.26707629 152.15376888 157.25888105 154.81378226 159.40625 157.390625 C160.51345754 158.36946065 161.63972435 159.32703725 162.78125 160.265625 C165.28812136 162.33861265 167.42132345 164.47856008 169.51098633 166.96899414 C173.8630505 172.00507005 178.59628643 176.61377434 183.35546875 181.26171875 C184.78438068 182.6703466 186.2132774 184.07899027 187.6412859 185.48853397 C191.12524922 188.92717609 194.61314475 192.36160148 198.11743164 195.77954102 C200.09556534 197.709547 202.06672775 199.64619252 204.03071594 201.59059143 C205.86934493 203.41058811 207.717532 205.22099581 209.57658386 207.02012634 C215.57268307 212.99042828 220.24254123 218.79725992 220.90234375 227.48828125 C220.72396528 239.55855773 219.41836555 246.12632744 210.953125 255.1171875 C203.99716866 261.32633871 196.21443719 263.74539415 187.0546875 263.59765625 C174.79562961 262.63935231 166.54840785 253.84591585 158.31616211 245.52758789 C157.56382294 244.77554077 156.81148376 244.02349365 156.03634644 243.24865723 C153.58065102 240.79158191 151.13209283 238.32752601 148.68359375 235.86328125 C146.97053649 234.14648909 145.2570336 232.43014149 143.54310608 230.71421814 C139.0556183 226.21913147 134.574172 221.71806905 130.09399414 217.21569824 C125.51228837 212.61345309 120.92484336 208.01693646 116.33789062 203.41992188 C107.355079 194.41572645 98.37844832 185.40539542 89.40625 176.390625 C86.5197859 177.77953897 84.44693457 179.10382505 82.18579102 181.3840332 C81.58158829 181.98838699 80.97738556 182.59274078 80.35487366 183.21540833 C79.71311691 183.86748764 79.07136017 184.51956696 78.41015625 185.19140625 C77.73959702 185.86479538 77.06903778 186.53818451 76.37815857 187.23197937 C74.23694241 189.38437242 72.10277308 191.54360238 69.96875 193.703125 C68.53626983 195.14564176 67.10333203 196.58770422 65.66992188 198.02929688 C62.44995787 201.26914919 59.23523197 204.51412585 56.02249146 207.76113892 C54.54143768 209.2543295 53.05521696 210.74208977 51.56616211 212.22729492 C50.26314415 213.53237485 48.97542496 214.853363 47.71875 216.203125 C46.40625 217.390625 46.40625 217.390625 44.40625 217.390625 C44.138125 218.03 43.87 218.669375 43.59375 219.328125 C42.40625 221.390625 42.40625 221.390625 39.40625 222.390625 C39.07625 223.380625 38.74625 224.370625 38.40625 225.390625 C35.96875 228.078125 35.96875 228.078125 33.40625 230.390625 C32.74625 230.390625 32.08625 230.390625 31.40625 230.390625 C31.07625 231.380625 30.74625 232.370625 30.40625 233.390625 C28.78522032 235.10171189 27.11121537 236.76315806 25.40625 238.390625 C24.66375 239.15375 23.92125 239.916875 23.15625 240.703125 C20.04521025 243.7434593 16.80317781 246.60304259 13.53515625 249.47265625 C11.27600327 251.45923628 11.27600327 251.45923628 8.84375 254.078125 C2.77100377 259.83944835 -4.02538975 263.42181841 -12.46875 263.640625 C-22.40438927 263.37329838 -29.72790349 260.25647151 -36.84375 253.140625 C-42.95906218 243.53084872 -46.20254016 235.0904672 -44.0859375 223.64453125 C-42.43532463 218.1237921 -39.89798478 214.29535254 -35.97729492 210.10058594 C-35.50171992 209.59128918 -35.02614492 209.08199242 -34.53615856 208.55726242 C-27.44952045 201.03103915 -20.09103621 193.76485301 -12.76953125 186.46875 C-11.17077506 184.87186331 -9.57224278 183.27475242 -7.97392273 181.6774292 C-3.80549506 177.51278478 0.36592877 173.35115449 4.5380249 169.19018555 C8.81039835 164.9281173 13.07987458 160.66314886 17.34960938 156.3984375 C25.6990204 148.05968968 34.05160564 139.72412928 42.40625 131.390625 C41.06800921 128.41173871 39.6021373 126.34367371 37.28289795 124.05368042 C36.64092972 123.4147435 35.99896149 122.77580658 35.33753967 122.11750793 C34.63414963 121.42759262 33.93075958 120.73767731 33.20605469 120.02685547 C32.46437546 119.29130936 31.72269623 118.55576324 30.95854187 117.79792786 C29.34719395 116.20088611 27.7336189 114.60608905 26.1180954 113.01327133 C23.5568782 110.48685439 21.00283052 107.95339383 18.45074463 105.41775513 C11.1931992 98.20908424 3.92474303 91.01149271 -3.35302734 83.82324219 C-7.80539276 79.42465035 -12.24779873 75.01619796 -16.68434906 70.60165787 C-18.37254653 68.92582752 -20.06452333 67.25379509 -21.76041412 65.58575058 C-24.14160173 63.24329612 -26.50993308 60.88849854 -28.87597656 58.53076172 C-29.91891624 57.51410683 -29.91891624 57.51410683 -30.98292542 56.47691345 C-38.34245171 49.08800147 -44.4917867 40.31719968 -44.90625 29.640625 C-44.67605814 20.62252044 -42.01174024 12.84872768 -35.59375 6.390625 C-24.80606129 -2.37437208 -13.31835856 -6.14028219 0 0 Z " fill="#FCFCFC" transform="translate(401.59375,359.609375)"/>
<path d="M0 0 C0.99 0.99 1.98 1.98 3 3 C2.04367001 4.29315061 1.08486149 5.58446853 0.125 6.875 C-0.40867188 7.59429687 -0.94234375 8.31359375 -1.4921875 9.0546875 C-3 11 -3 11 -5 13 C-5.34731345 8.13761177 -4.52309739 5.17281491 -2 1 C-1.34 0.67 -0.68 0.34 0 0 Z " fill="#EFEFEF" transform="translate(197,248)"/>
<path d="M0 0 C0.66 0.33 1.32 0.66 2 1 C1.4946875 1.40992188 0.989375 1.81984375 0.46875 2.2421875 C-0.1809375 2.78101563 -0.830625 3.31984375 -1.5 3.875 C-2.1496875 4.40867188 -2.799375 4.94234375 -3.46875 5.4921875 C-4.22671875 6.23855469 -4.22671875 6.23855469 -5 7 C-5 7.66 -5 8.32 -5 9 C-6.96498322 10.38442 -8.97048465 11.71203834 -11 13 C-12.34175973 13.98866506 -13.67896002 14.9838154 -15 16 C-15.66 15.67 -16.32 15.34 -17 15 C-15.10600285 13.24797712 -13.20988262 11.49835022 -11.3125 9.75 C-10.51682617 9.01330078 -10.51682617 9.01330078 -9.70507812 8.26171875 C-6.56566972 5.37269261 -3.36822939 2.62459433 0 0 Z " fill="#2B2B2B" transform="translate(254,197)"/>
<path d="M0 0 C1.65 0 3.3 0 5 0 C5.33 0.99 5.66 1.98 6 3 C11.94 3.99 11.94 3.99 18 5 C18 5.33 18 5.66 18 6 C11.06697907 6.22731216 4.7831364 5.42002108 -2 4 C-1.34 2.68 -0.68 1.36 0 0 Z " fill="#272727" transform="translate(438,858)"/>
<path d="M0 0 C0.66 0 1.32 0 2 0 C2 1.65 2 3.3 2 5 C1.01 5.33 0.02 5.66 -1 6 C-1.69258229 7.99117408 -2.35747635 9.9921136 -3 12 C-4.625 13.875 -4.625 13.875 -6 15 C-6.33 14.34 -6.66 13.68 -7 13 C-5.92325298 10.71741367 -4.80453884 8.5643566 -3.5625 6.375 C-3.22412109 5.76398438 -2.88574219 5.15296875 -2.53710938 4.5234375 C-1.69853808 3.011647 -0.85017423 1.50529601 0 0 Z " fill="#262626" transform="translate(163,304)"/>
<path d="M0 0 C0.33 1.32 0.66 2.64 1 4 C0.01 4.66 -0.98 5.32 -2 6 C-1.67 6.66 -1.34 7.32 -1 8 C-1.598125 8.433125 -2.19625 8.86625 -2.8125 9.3125 C-4.70783087 10.77461239 -6.3528593 12.27050227 -8 14 C-6.7542451 7.89580099 -4.30284347 4.45168397 0 0 Z " fill="#CECECE" transform="translate(367,568)"/>
<path d="M0 0 C0.33 0.99 0.66 1.98 1 3 C-4.12195122 10.68292683 -4.12195122 10.68292683 -7.25 11.8125 C-7.8275 11.874375 -8.405 11.93625 -9 12 C-6.53974941 7.48954059 -3.39717963 3.81495577 0 0 Z " fill="#2B2B2B" transform="translate(204,246)"/>
<path d="M0 0 C0.66 0.66 1.32 1.32 2 2 C1.21625 2.45375 0.4325 2.9075 -0.375 3.375 C-2.85853284 4.91242509 -4.53409376 6.49526824 -6.5 8.625 C-8 10 -8 10 -10 10 C-10.33 9.01 -10.66 8.02 -11 7 C-7.37 4.69 -3.74 2.38 0 0 Z " fill="#1F1F1F" transform="translate(291,171)"/>
<path d="M0 0 C4.50884026 2.31883213 6.93906776 5.06451569 10 9 C9.01 9.495 9.01 9.495 8 10 C6.8274869 9.04882866 5.66212985 8.08882991 4.5 7.125 C3.8503125 6.59132812 3.200625 6.05765625 2.53125 5.5078125 C2.0259375 5.01023438 1.520625 4.51265625 1 4 C1 3.34 1 2.68 1 2 C0.34 1.67 -0.32 1.34 -1 1 C-0.67 0.67 -0.34 0.34 0 0 Z " fill="#151515" transform="translate(740,211)"/>
<path d="M0 0 C-0.66 1.32 -1.32 2.64 -2 4 C-2.99 4 -3.98 4 -5 4 C-4.67 4.66 -4.34 5.32 -4 6 C-4.99 6 -5.98 6 -7 6 C-7 5.01 -7 4.02 -7 3 C-8.32 3.33 -9.64 3.66 -11 4 C-9.71264403 1.42528807 -8.71510189 1.29583343 -6.0625 0.3125 C-5.35222656 0.04050781 -4.64195312 -0.23148438 -3.91015625 -0.51171875 C-2 -1 -2 -1 0 0 Z " fill="#2B2B2B" transform="translate(344,145)"/>
<path d="M0 0 C0.33 0.66 0.66 1.32 1 2 C-1.49825283 5.21203935 -4.0702992 8.17493137 -7 11 C-7.99 10.67 -8.98 10.34 -10 10 C-9.38125 9.7525 -8.7625 9.505 -8.125 9.25 C-5.57496075 7.74997691 -5.23777652 6.6302751 -4 4 C-2.70529025 2.62913085 -1.37849103 1.28659163 0 0 Z " fill="#3A3A3A" transform="translate(554,469)"/>
<path d="M0 0 C2.0625 2.3125 2.0625 2.3125 4 5 C3.67 5.99 3.34 6.98 3 8 C2.01 8.33 1.02 8.66 0 9 C-1.125 6.1875 -1.125 6.1875 -2 3 C-1.34 2.01 -0.68 1.02 0 0 Z " fill="#171717" transform="translate(810,294)"/>
<path d="M0 0 C0.33 0.66 0.66 1.32 1 2 C-1.0625 4.5 -1.0625 4.5 -4 7 C-7.8125 7.3125 -7.8125 7.3125 -11 7 C-7.53258866 4.04250209 -4.13126473 1.92151848 0 0 Z " fill="#DCDCDC" transform="translate(681,813)"/>
<path d="M0 0 C2.62187494 1.04874998 3.79371361 1.64931313 5.25 4.125 C5.4975 4.74375 5.745 5.3625 6 6 C4.68 6.99 3.36 7.98 2 9 C1.855625 8.2575 1.71125 7.515 1.5625 6.75 C1.09812508 4.47972261 0.58136431 2.24240521 0 0 Z " fill="#171717" transform="translate(439,485)"/>
<path d="M0 0 C-3.61891796 1.93570031 -6.86736741 3.65561395 -11 4 C-11.66 3.34 -12.32 2.68 -13 2 C-11.5882217 1.46605821 -10.17029756 0.94834896 -8.75 0.4375 C-7.96109375 0.14746094 -7.1721875 -0.14257812 -6.359375 -0.44140625 C-3.80896548 -1.04522837 -2.44677771 -0.8473932 0 0 Z " fill="#D3D3D3" transform="translate(602,850)"/>
<path d="M0 0 C1.32 0.66 2.64 1.32 4 2 C1.69 3.65 -0.62 5.3 -3 7 C-3 6.34 -3 5.68 -3 5 C-3.66 4.67 -4.32 4.34 -5 4 C-4.0409375 3.8453125 -4.0409375 3.8453125 -3.0625 3.6875 C-2.381875 3.460625 -1.70125 3.23375 -1 3 C-0.67 2.01 -0.34 1.02 0 0 Z " fill="#141414" transform="translate(705,793)"/>
<path d="M0 0 C5.22321429 4.82142857 5.22321429 4.82142857 6 9 C4.85073734 8.04578192 3.70569459 7.08647955 2.5625 6.125 C1.92441406 5.59132813 1.28632812 5.05765625 0.62890625 4.5078125 C-1 3 -1 3 -2 1 C-1.34 0.67 -0.68 0.34 0 0 Z " fill="#E0E0E0" transform="translate(540,581)"/>
<path d="M0 0 C0.66 0.66 1.32 1.32 2 2 C1.77256695 4.95662966 1.38764062 6.55033688 -0.5625 8.8125 C-1.036875 9.204375 -1.51125 9.59625 -2 10 C-1.125 2.25 -1.125 2.25 0 0 Z " fill="#2D2D2D" transform="translate(125,400)"/>
<path d="M0 0 C0.66 0.66 1.32 1.32 2 2 C0.84826645 4.46800047 -0.04783565 6.04783565 -2 8 C-3.32 7.34 -4.64 6.68 -6 6 C-4.02 4.02 -2.04 2.04 0 0 Z " fill="#2E2E2E" transform="translate(225,223)"/>
<path d="M0 0 C1 3 1 3 0.375 5 C-1.36380086 7.52916489 -3.31063318 8.58454378 -6 10 C-4.34832443 6.4213696 -2.21713508 3.25179812 0 0 Z " fill="#D3D3D3" transform="translate(798,704)"/>
<path d="M0 0 C1.32 0 2.64 0 4 0 C4.33 1.65 4.66 3.3 5 5 C4.01 5.66 3.02 6.32 2 7 C0 4 0 4 0 0 Z " fill="#111111" transform="translate(139,354)"/>
<path d="M0 0 C0.66 0.33 1.32 0.66 2 1 C0.35 2.65 -1.3 4.3 -3 6 C-4.32 5.34 -5.64 4.68 -7 4 C-1.7265625 0.77734375 -1.7265625 0.77734375 0 0 Z " fill="#CECECE" transform="translate(662,823)"/>
<path d="M0 0 C0.66 0.99 1.32 1.98 2 3 C-0.8125 5.0625 -0.8125 5.0625 -4 7 C-4.99 6.67 -5.98 6.34 -7 6 C-4.69 4.02 -2.38 2.04 0 0 Z " fill="#2A2A2A" transform="translate(614,612)"/>
<path d="M0 0 C0.5534764 2.07553648 1 3.84365964 1 6 C0.01 6 -0.98 6 -2 6 C-2.66 6.66 -3.32 7.32 -4 8 C-4 4 -4 4 -2 1.75 C-1.01 0.88375 -1.01 0.88375 0 0 Z " fill="#2B2B2B" transform="translate(211,238)"/>
<path d="M0 0 C0.33 0.66 0.66 1.32 1 2 C0.34 1.67 -0.32 1.34 -1 1 C-0.67 0.67 -0.34 0.34 0 0 Z M-3 2 C-2.34 2.33 -1.68 2.66 -1 3 C-1.33 3.99 -1.66 4.98 -2 6 C-5.5625 7.1875 -5.5625 7.1875 -9 8 C-7 6 -5 4 -3 2 Z " fill="#202020" transform="translate(273,183)"/>
<path d="M0 0 C0.66 0.33 1.32 0.66 2 1 C-0.82553984 5.23830976 -3.12180888 4.97715348 -8 6 C-5.63404067 3.38499232 -3.13950774 1.61000397 0 0 Z " fill="#2E2E2E" transform="translate(309,160)"/>
<path d="M0 0 C0.66 1.32 1.32 2.64 2 4 C1.01 4.33 0.02 4.66 -1 5 C-2.66710346 6.49985609 -2.66710346 6.49985609 -4 8 C-4 6.68 -4 5.36 -4 4 C-3.34 4 -2.68 4 -2 4 C-1.34 2.68 -0.68 1.36 0 0 Z " fill="#D6D6D6" transform="translate(762,748)"/>
<path d="M0 0 C0.66 0.33 1.32 0.66 2 1 C1.67 2.32 1.34 3.64 1 5 C-0.32 5.33 -1.64 5.66 -3 6 C-3 4.68 -3 3.36 -3 2 C-2.01 1.34 -1.02 0.68 0 0 Z " fill="#151515" transform="translate(556,504)"/>
<path d="M0 0 C0.33 0.66 0.66 1.32 1 2 C0.06553465 4.03144641 -0.93224776 6.03533587 -2 8 C-3.32 7.34 -4.64 6.68 -6 6 C-4.02 4.02 -2.04 2.04 0 0 Z " fill="#393939" transform="translate(578,445)"/>
<path d="M0 0 C0.33 0.66 0.66 1.32 1 2 C0.06553465 4.03144641 -0.93224776 6.03533587 -2 8 C-3.32 7.34 -4.64 6.68 -6 6 C-4.02 4.02 -2.04 2.04 0 0 Z " fill="#393939" transform="translate(586,437)"/>
<path d="M0 0 C0.33 1.32 0.66 2.64 1 4 C-0.98 5.32 -2.96 6.64 -5 8 C-5.66 7.67 -6.32 7.34 -7 7 C-6.38125 6.7525 -5.7625 6.505 -5.125 6.25 C-2.62985717 4.78226892 -2.09872287 3.62003145 -1 1 C-0.67 0.67 -0.34 0.34 0 0 Z " fill="#3C3C3C" transform="translate(415,608)"/>
<path d="M0 0 C1.98 1.65 3.96 3.3 6 5 C5.01 5.66 4.02 6.32 3 7 C1 5 1 5 -1 2 C-0.67 1.34 -0.34 0.68 0 0 Z " fill="#D1D1D1" transform="translate(412,368)"/>
<path d="M0 0 C3.16115776 1.36983503 3.9927092 1.9890638 6 5 C5.01 5.33 4.02 5.66 3 6 C3 5.34 3 4.68 3 4 C2.01 4 1.02 4 0 4 C0 2.68 0 1.36 0 0 Z " fill="#0E0E0E" transform="translate(768,240)"/>
<path d="M0 0 C7.42857143 -0.28571429 7.42857143 -0.28571429 11 2 C6.58937864 3.0257259 4.07369424 3.03684712 0 1 C0 0.67 0 0.34 0 0 Z " fill="#CACACA" transform="translate(429,861)"/>
<path d="M0 0 C1.98 1.65 3.96 3.3 6 5 C4.02 5.99 4.02 5.99 2 7 C0.5393715 4.35261084 0 3.10551666 0 0 Z " fill="#DCDCDC" transform="translate(214,745)"/>
<path d="M0 0 C0.33 0.66 0.66 1.32 1 2 C-0.4375 4.625 -0.4375 4.625 -2 7 C-3.32 6.67 -4.64 6.34 -6 6 C-4.02 4.02 -2.04 2.04 0 0 Z " fill="#3D3D3D" transform="translate(570,453)"/>
<path d="M0 0 C0.66 0 1.32 0 2 0 C3.38938077 1.96147874 4.7260411 3.96166576 6 6 C5.01 6 4.02 6 3 6 C0.8125 3.5 0.8125 3.5 -1 1 C-0.67 0.67 -0.34 0.34 0 0 Z " fill="#0D0D0D" transform="translate(476,429)"/>
<path d="M0 0 C0.66 0.33 1.32 0.66 2 1 C1.01 3.97 0.02 6.94 -1 10 C-2.10191901 5.59232396 -1.58706842 4.1077065 0 0 Z " fill="#DCDCDC" transform="translate(144,337)"/>
<path d="M0 0 C0.66 0.33 1.32 0.66 2 1 C2.33 1.99 2.66 2.98 3 4 C0.625 4.625 0.625 4.625 -2 5 C-2.66 4.34 -3.32 3.68 -4 3 C-2.68 2.01 -1.36 1.02 0 0 Z " fill="#232323" transform="translate(278,179)"/>
<path d="M0 0 C0.66 1.32 1.32 2.64 2 4 C2.99 4 3.98 4 5 4 C5 4.66 5 5.32 5 6 C4.01 6.33 3.02 6.66 2 7 C0.4375 5.1875 0.4375 5.1875 -1 3 C-0.67 2.01 -0.34 1.02 0 0 Z " fill="#121212" transform="translate(615,567)"/>
<path d="M0 0 C0.99 0.495 0.99 0.495 2 1 C1.01 1.495 1.01 1.495 0 2 C0 1.34 0 0.68 0 0 Z M-2 1 C-1.01 1.99 -0.02 2.98 1 4 C-0.98 4.99 -0.98 4.99 -3 6 C-3.33 5.34 -3.66 4.68 -4 4 C-3.34 3.01 -2.68 2.02 -2 1 Z " fill="#171717" transform="translate(564,512)"/>
</svg>
